<svg xmlns="http://www.w3.org/2000/svg"  viewBox="0 0 120 120" width="60px" height="60px" baseProfile="basic"><path d="M80.512,15.601c-15.244-2.56-29.708,8.628-44.499,23.418C20.841,54.192,9.682,69.244,12.813,84.694 c1.221,6.023,3.969,11.462,8.351,15.844c20.506,20.506,45.38,11.189,66.468-9.899s30.406-45.962,9.899-66.468 C92.866,19.505,87.003,16.691,80.512,15.601z M69.247,72.254c-13.931,13.931-33.316,22.409-33.72,20.924 c-2.99-10.981,2.733-26.707,15.336-39.309c12.603-12.603,28.328-18.326,39.309-15.336C91.657,38.938,83.179,58.322,69.247,72.254z" opacity=".35"/><path fill="#ffc400" d="M80.512,11.601c-15.244-2.56-29.708,8.628-44.499,23.418C20.841,50.192,9.682,65.244,12.813,80.694 c1.221,6.023,3.969,11.462,8.351,15.844c20.506,20.506,45.38,11.189,66.468-9.899s30.406-45.962,9.899-66.468 C92.866,15.505,87.003,12.691,80.512,11.601z M69.247,68.254c-13.931,13.931-33.316,22.409-33.72,20.924 c-2.99-10.981,2.733-26.707,15.336-39.309c12.603-12.603,28.328-18.326,39.309-15.336C91.657,34.938,83.179,54.322,69.247,68.254z"/><path fill="#ffa400" d="M90.34,35.92l0.268-14.262l-6.85-7.882L73.39,12.697l-20.033,7.6L38.397,32.669 c-0.794,0.773-1.588,1.555-2.383,2.351c-1.05,1.05-2.079,2.1-3.087,3.149l-13.91,18.957l-5.114,17.927l5.348,13.225l16.561,1.454 l0.081-0.392c-0.206-0.008-0.337-0.058-0.366-0.162c-2.99-10.981,2.733-26.707,15.336-39.309s28.328-18.326,39.309-15.336 c0.233,0.063,0.22,0.594-0.019,1.497L90.34,35.92z"/><path fill="#ffec76" d="M73.109,21.14c-0.485,1.523-1.902,5.765-2.617,7.085c-1.088,2.011-2.038,2.244-2.659,2.244 c-0.534,0-1.036-0.208-1.414-0.586c-0.378-0.378-0.586-0.88-0.586-1.414c0-0.1,0.016-0.197,0.031-0.294 c0.028-0.115,0.062-0.223,0.089-0.34c0.278-0.776,1.031-1.366,1.879-1.366v-2c-1.679-0.001-3.174,1.155-3.744,2.684l-0.021-0.005 c-0.027,0.125-0.065,0.237-0.094,0.36c-0.022,0.082-0.048,0.162-0.064,0.246c-0.536,2.175-1.348,4.049-2.393,5.418 c-1.067,1.398-1.792,2.245-2.876,2.245c-0.534,0-1.036-0.208-1.414-0.586c-0.378-0.378-0.586-0.88-0.586-1.414c0-1.069,0.931-2,2-2 v-2c-1.812-0.001-3.413,1.342-3.863,3.052l-0.054-0.017c-0.485,1.523-1.902,5.765-2.617,7.085 c-1.088,2.012-2.038,2.243-2.659,2.244c-0.534,0-1.036-0.208-1.414-0.586c-0.282-0.282-0.47-0.635-0.546-1.018l0.018-0.075 l-0.027-0.007c-0.016-0.104-0.031-0.208-0.031-0.315c0-1.069,0.931-2,2-2v-2c-2.137-0.001-4,1.862-4,4 c0,0.077,0.018,0.151,0.022,0.227l-1.773,7.315l-0.028,0.236c0,1.069-0.931,2-2,2c-0.534,0-1.036-0.208-1.414-0.586 c-0.378-0.378-0.586-0.88-0.586-1.414c0-1.069,0.931-2,2-2v-2c-2.137-0.001-4,1.862-4,4c0,0.368,0.066,0.723,0.162,1.069 l0.18,7.416c0,1.069-0.931,2-2,2c-0.534,0-1.036-0.208-1.414-0.586c-0.378-0.378-0.586-0.88-0.586-1.414c0-1.069,0.931-2,2-2v-2 c-1.395,0-2.663,0.8-3.382,1.946c-0.219-2.428,0.17-4.634,1.968-6.432l-1.414-1.414c-3.291,3.291-2.902,7.415-1.935,11.578 l-1.7,8.014l-0.022,0.207c0,1.069-0.931,2-2,2c-0.534,0-1.036-0.208-1.414-0.586c-0.378-0.378-0.586-0.88-0.586-1.414 c0-1.069,0.931-2,2-2v-2c-2.137-0.001-4,1.862-4,4c0,1.069,0.416,2.073,1.171,2.828c0.748,0.748,1.74,1.16,2.797,1.168 l-0.781,4.311l-0.016,0.178c0,1.069-0.931,2-2,2c-0.534,0-1.036-0.208-1.414-0.586c-0.378-0.378-0.586-0.88-0.586-1.414 c0-1.069,0.931-2,2-2v-2c-2.137-0.001-4,1.862-4,4c0,1.069,0.416,2.073,1.171,2.828s1.76,1.172,2.828,1.171 c1.069,0,2.073-0.416,2.828-1.171c0.733-0.733,1.146-1.7,1.17-2.732l0.941-5.194c0.255-0.16,0.499-0.341,0.717-0.559 c0.729-0.729,1.142-1.69,1.17-2.717l0.831-3.918c0.939,3.887,1.392,7.484-1.294,10.17l1.414,1.414 c3.94-3.94,2.609-9.074,1.321-14.04c-0.034-0.129-0.067-0.258-0.1-0.387c0.673,0.481,1.471,0.749,2.314,0.748 c1.069,0,2.073-0.416,2.828-1.171c0.755-0.755,1.171-1.76,1.171-2.853l-0.119-4.894c0.547,0.273,1.147,0.433,1.776,0.433 c1.069,0,2.073-0.416,2.828-1.171c0.725-0.725,1.138-1.68,1.169-2.701l1.184-4.886c0.725,0.625,1.629,0.98,2.596,0.98 c1.316,0,2.308-0.617,3.028-1.336c0.722-0.722,1.169-1.547,1.389-1.955c0.493-0.91,1.196-2.807,1.77-4.459 c0.061,0.07,0.11,0.148,0.177,0.215c0.755,0.755,1.76,1.172,2.828,1.171c1.336,0,2.317-0.621,3.128-1.432 c0.495-0.495,0.927-1.061,1.339-1.6c0.703-0.921,1.3-1.998,1.802-3.205c0.034,0.037,0.06,0.08,0.096,0.116 c0.755,0.755,1.76,1.171,2.828,1.171c1.316,0,2.308-0.617,3.028-1.336c0.722-0.722,1.169-1.547,1.389-1.955 c0.951-1.756,2.69-7.2,2.763-7.431L73.109,21.14z"/><path fill="#ffec76" d="M99.531,53.925c0,1.069-0.931,2-2,2c-0.534,0-1.036-0.208-1.414-0.586 c-0.378-0.378-0.586-0.88-0.586-1.414c0-1.069,0.931-2,2-2v-2c-2.124-0.001-3.973,1.84-3.995,3.96l-0.003,0l-0.365,9.232 c0,1.069-0.931,2-2,2c-0.534,0-1.036-0.208-1.414-0.586c-0.378-0.378-0.586-0.88-0.586-1.414c0-1.069,0.931-2,2-2v-2 c-2.124-0.001-3.973,1.84-3.995,3.96l-0.004,0l-0.365,9.232c0,1.069-0.931,2-2,2c-0.534,0-1.036-0.208-1.414-0.586 c-0.378-0.378-0.586-0.88-0.586-1.414c0-1.069,0.931-2,2-2v-2c-1.03,0-1.991,0.439-2.715,1.126c0.14-2.677,0.789-5.1,2.715-7.026 l-1.414-1.414c-2.813,2.813-3.372,6.374-3.33,10.069l-1.72,8.108l-0.022,0.208c0,1.069-0.931,2-2,2 c-0.534,0-1.036-0.208-1.414-0.586c-0.378-0.378-0.586-0.88-0.586-1.414c0-1.069,0.931-2,2-2v-2 c-1.937-0.001-3.634,1.534-3.937,3.412l-0.019-0.003l-1.1,6.069l-0.016,0.178c0,1.069-0.931,2-2,2 c-0.534,0-1.036-0.208-1.414-0.586c-0.378-0.378-0.586-0.88-0.586-1.414c0-1.069,0.931-2,2-2v-2 c-1.937-0.001-3.634,1.534-3.937,3.412l-0.019-0.003l-1.1,6.069l-0.016,0.178c0,1.069-0.931,2-2,2 c-0.534,0-1.036-0.208-1.414-0.586s-0.586-0.88-0.586-1.414c0-1.069,0.931-2,2-2v-2c-2.082-0.001-3.891,1.771-3.982,3.838 l-0.004-0.001c-1.289,7.845-8.398,7.661-8.699,7.648l-0.087,1.998c0.064,0.003,4.542,0.149,7.763-3.071 c0.89-0.89,1.681-2.043,2.259-3.522c0.747,0.711,1.716,1.108,2.751,1.108c1.069,0,2.073-0.416,2.828-1.171 c0.733-0.733,1.146-1.7,1.17-2.732l0.493-2.72c0.722,0.616,1.62,0.967,2.58,0.967c1.069,0,2.073-0.416,2.828-1.171 c0.733-0.733,1.146-1.7,1.17-2.732l0.493-2.72c0.722,0.616,1.62,0.967,2.58,0.967c1.069,0,2.073-0.416,2.828-1.171 c0.729-0.729,1.142-1.69,1.17-2.717l0.155-0.73c0.09,3.498-0.324,6.689-2.739,9.103l1.414,1.414 c3.775-3.775,3.496-8.896,3.142-13.884c0.711,0.581,1.584,0.914,2.515,0.913c1.069,0,2.073-0.416,2.828-1.171 c0.755-0.755,1.172-1.76,1.17-2.789l0.232-5.856c0.633,0.402,1.365,0.624,2.133,0.624c1.069,0,2.073-0.416,2.828-1.171 c0.755-0.755,1.172-1.76,1.17-2.789l0.232-5.856c0.633,0.402,1.365,0.624,2.133,0.624c1.069,0,2.073-0.416,2.828-1.171 s1.172-1.76,1.171-2.828H99.531z"/><path fill="#ffec76" d="M70.662,69.481C50.44,89.703,26.679,97.623,16.568,87.513s-2.191-33.872,18.031-54.094 S78.582,5.277,88.693,15.388S90.884,49.259,70.662,69.481z M37.428,36.247C19.413,54.262,11.156,76.443,19.396,84.684 s30.422-0.017,48.437-18.031s26.272-40.196,18.031-48.437S55.442,18.233,37.428,36.247z"/></svg>